3DGaitModel2392_coordinates
version=1
nRows=21
nColumns=24
inDegrees=yes

# SIMM Motion File Header:
name 3DGaitModel2392_coordinates
datacolumns 24
datarows 21
otherdata 1
range 1.23114160 1.23414633
endheader
time pelvis_tilt pelvis_list pelvis_rotation pelvis_tx pelvis_ty pelvis_tz hip_flexion_r hip_adduction_r hip_rotation_r knee_angle_r ankle_angle_r subtalar_angle_r mtp_angle_r hip_flexion_l hip_adduction_l hip_rotation_l knee_angle_l ankle_angle_l subtalar_angle_l mtp_angle_l lumbar_extension lumbar_bending lumbar_rotation
1.23114160	-0.00000000	0.00000000	-0.00000000	-0.01662506	0.98172955	-0.00000000	-0.00000000	0.00000000	0.00000000	1184.09270278	-25217.74189420	0.00000000	0.00000000	-0.00000000	-0.00000000	-0.00000000	0.00000000	-0.00000000	0.00000000	-0.00000000	-0.00000000	0.00000000	0.00000000
1.23133017	-0.00000000	0.00000000	-0.00000000	-0.01677705	0.98151283	-0.00000000	-0.00000000	0.00000000	0.00000000	1185.48305091	-25231.45137710	0.00000000	0.00000000	-0.00000000	-0.00000000	-0.00000000	0.00000000	-0.00000000	0.00000000	-0.00000000	-0.00000000	0.00000000	0.00000000
1.23149085	-0.00000000	0.00000000	-0.00000000	-0.01686673	0.98132744	-0.00000000	-0.00000000	0.00000000	0.00000000	1186.84620725	-25243.74317230	0.00000000	0.00000000	-0.00000000	-0.00000000	-0.00000000	0.00000000	-0.00000000	0.00000000	-0.00000000	-0.00000000	0.00000000	0.00000000
1.23162995	-0.00000000	0.00000000	-0.00000000	-0.01690490	0.98117085	-0.00000000	-0.00000000	0.00000000	0.00000000	1188.14753163	-25254.85156890	0.00000000	0.00000000	-0.00000000	-0.00000000	-0.00000000	0.00000000	-0.00000000	0.00000000	-0.00000000	-0.00000000	0.00000000	0.00000000
1.23176904	-0.00000000	0.00000000	-0.00000000	-0.01689837	0.98102297	-0.00000000	-0.00000000	0.00000000	0.00000000	1189.53825660	-25266.33316969	0.00000000	0.00000000	-0.00000000	-0.00000000	-0.00000000	0.00000000	-0.00000000	0.00000000	-0.00000000	-0.00000000	0.00000000	0.00000000
1.23190814	-0.00000000	0.00000000	-0.00000000	-0.01684173	0.98088943	-0.00000000	-0.00000000	0.00000000	0.00000000	1190.98109102	-25278.04735592	0.00000000	0.00000000	-0.00000000	-0.00000000	-0.00000000	0.00000000	-0.00000000	0.00000000	-0.00000000	-0.00000000	0.00000000	0.00000000
1.23204723	-0.00000000	0.00000000	-0.00000000	-0.01673397	0.98077535	-0.00000000	-0.00000000	0.00000000	0.00000000	1192.42747465	-25289.79222869	0.00000000	0.00000000	-0.00000000	-0.00000000	-0.00000000	0.00000000	-0.00000000	0.00000000	-0.00000000	-0.00000000	0.00000000	0.00000000
1.23218633	-0.00000000	0.00000000	-0.00000000	-0.01657922	0.98068396	-0.00000000	-0.00000000	0.00000000	0.00000000	1193.82790770	-25301.36224819	0.00000000	0.00000000	-0.00000000	-0.00000000	-0.00000000	0.00000000	-0.00000000	0.00000000	-0.00000000	-0.00000000	0.00000000	0.00000000
1.23232543	-0.00000000	0.00000000	-0.00000000	-0.01638531	0.98061600	-0.00000000	-0.00000000	0.00000000	0.00000000	1195.14276717	-25312.60834686	0.00000000	0.00000000	-0.00000000	-0.00000000	-0.00000000	0.00000000	-0.00000000	0.00000000	-0.00000000	-0.00000000	0.00000000	0.00000000
1.23246452	-0.00000000	0.00000000	-0.00000000	-0.01616141	0.98057014	-0.00000000	-0.00000000	0.00000000	0.00000000	1196.34677920	-25323.46156353	0.00000000	0.00000000	-0.00000000	-0.00000000	-0.00000000	0.00000000	-0.00000000	0.00000000	-0.00000000	-0.00000000	0.00000000	0.00000000
1.23260362	-0.00000000	0.00000000	-0.00000000	-0.01591611	0.98054392	-0.00000000	-0.00000000	0.00000000	0.00000000	1197.42698740	-25333.92021069	0.00000000	0.00000000	-0.00000000	-0.00000000	-0.00000000	0.00000000	-0.00000000	0.00000000	-0.00000000	-0.00000000	0.00000000	0.00000000
1.23278493	-0.00000000	0.00000000	-0.00000000	-0.01557617	0.98053457	-0.00000000	-0.00000000	0.00000000	0.00000000	1198.64124959	-25347.02984957	0.00000000	0.00000000	-0.00000000	-0.00000000	-0.00000000	0.00000000	-0.00000000	0.00000000	-0.00000000	-0.00000000	0.00000000	0.00000000
1.23296624	-0.00000000	0.00000000	-0.00000000	-0.01522518	0.98054773	-0.00000000	-0.00000000	0.00000000	0.00000000	1199.63442357	-25359.67495476	0.00000000	0.00000000	-0.00000000	-0.00000000	-0.00000000	0.00000000	-0.00000000	0.00000000	-0.00000000	-0.00000000	0.00000000	0.00000000
1.23321081	-0.00000000	0.00000000	-0.00000000	-0.01475226	0.98059140	-0.00000000	-0.00000000	0.00000000	0.00000000	1200.62471833	-25376.26548200	0.00000000	0.00000000	-0.00000000	-0.00000000	-0.00000000	0.00000000	-0.00000000	0.00000000	-0.00000000	-0.00000000	0.00000000	0.00000000
1.23345538	-0.00000000	0.00000000	-0.00000000	-0.01429987	0.98065330	-0.00000000	-0.00000000	0.00000000	0.00000000	1201.21265285	-25392.65433048	0.00000000	0.00000000	-0.00000000	-0.00000000	-0.00000000	0.00000000	-0.00000000	0.00000000	-0.00000000	-0.00000000	0.00000000	0.00000000
1.23361450	-0.00000000	0.00000000	-0.00000000	-0.01402686	0.98069714	-0.00000000	-0.00000000	0.00000000	0.00000000	1201.37795771	-25403.36957795	0.00000000	0.00000000	-0.00000000	-0.00000000	-0.00000000	0.00000000	-0.00000000	0.00000000	-0.00000000	-0.00000000	0.00000000	0.00000000
1.23372573	-0.00000000	0.00000000	-0.00000000	-0.01385015	0.98072680	-0.00000000	-0.00000000	0.00000000	0.00000000	1201.39254526	-25410.93739343	0.00000000	0.00000000	-0.00000000	-0.00000000	-0.00000000	0.00000000	-0.00000000	0.00000000	-0.00000000	-0.00000000	0.00000000	0.00000000
1.23381502	-0.00000000	0.00000000	-0.00000000	-0.01371861	0.98074875	-0.00000000	-0.00000000	0.00000000	0.00000000	1201.34561501	-25417.07669529	0.00000000	0.00000000	-0.00000000	-0.00000000	-0.00000000	0.00000000	-0.00000000	0.00000000	-0.00000000	-0.00000000	0.00000000	0.00000000
1.23390431	-0.00000000	0.00000000	-0.00000000	-0.01359769	0.98076800	-0.00000000	-0.00000000	0.00000000	0.00000000	1201.24868035	-25423.28225142	0.00000000	0.00000000	-0.00000000	-0.00000000	-0.00000000	0.00000000	-0.00000000	0.00000000	-0.00000000	-0.00000000	0.00000000	0.00000000
1.23402532	-0.00000000	0.00000000	-0.00000000	-0.01345315	0.98078788	-0.00000000	-0.00000000	0.00000000	0.00000000	1201.04373331	-25431.80566557	0.00000000	0.00000000	-0.00000000	-0.00000000	-0.00000000	0.00000000	-0.00000000	0.00000000	-0.00000000	-0.00000000	0.00000000	0.00000000
1.23414633	-0.00000000	0.00000000	-0.00000000	-0.01333374	0.98079803	-0.00000000	-0.00000000	0.00000000	0.00000000	1200.76635048	-25440.45563043	0.00000000	0.00000000	-0.00000000	-0.00000000	-0.00000000	0.00000000	-0.00000000	0.00000000	-0.00000000	-0.00000000	0.00000000	0.00000000
